<?xml version="1.0" encoding="utf-8"?>
<!-- Generator: Adobe Illustrator 27.5.0, SVG Export Plug-In . SVG Version: 6.00 Build 0)  -->
<svg version="1.1" id="Layer_1" xmlns="http://www.w3.org/2000/svg" xmlns:xlink="http://www.w3.org/1999/xlink" x="0px" y="0px"
	 viewBox="300 300 1400 1400" style="enable-background:new 300 300 1400 1400;" xml:space="preserve">
<g>
	<g>
		<path style="fill:#FFEA3E;" d="M1410.776,764.267c-2.448-14.297-4.079-28.86-7.734-41.744
			c-3.848-13.565-8.022-27.149-12.508-40.518c-4.502-13.419-9.896-26.482-15.203-39.595c-2.768-6.841-5.95-14.09-8.76-21.546
			c-58.263-108.338-163.779-189.894-294.323-212.912c-67.577-11.916-134.216-6.792-195.515,12.275
			c-4.648,1.68-9.294,3.364-13.948,5.03c-6.822,2.442-13.639,4.891-20.451,7.356c-76.065,31.231-141.892,84.593-188.1,153.509
			C644.838,601,636.05,616.24,628.405,632.1c-7.825,16.233-13.492,31.34-19.427,49.128c-5.822,17.452-9.239,35.459-14.492,53.031
			c-0.377,1.261-0.909,2.385-1.559,3.381c-0.222,1.38-0.45,2.76-0.644,4.147c-0.037,0.315-0.095,0.797-0.176,1.475
			c-0.104,0.903-0.205,1.806-0.301,2.71c-0.228,2.11-0.455,4.22-0.676,6.33c-0.444,4.225-0.833,8.454-1.146,12.691
			c-0.584,7.881-1.354,15.748-1.836,23.637c-1.036,16.929-1.574,33.938-0.272,50.88c0.236,3.079-0.962,5.95-2.937,8.204
			c4.714,65.848,25.059,128.473,57.909,183.391c5.032,7.508,10.271,14.88,15.73,22.102c0.271,0.358,2.912,3.792,2.457,3.215
			c0.444,0.579,0.885,1.162,1.346,1.725c1.526,1.862,3.151,3.657,4.733,5.473c3.173,3.643,6.409,7.229,9.673,10.791
			c6.876,7.503,13.687,15.041,20.85,22.277c14.193,14.339,29.14,27.761,44.742,40.55c2.064,1.692,4.141,3.368,6.231,5.028
			c1.136,0.902,2.277,1.796,3.418,2.691c1.861,1.418,3.723,2.833,5.599,4.23c2.023,1.507,4.018,3.026,6.016,4.574
			c-0.123-0.095-0.224-0.173-0.329-0.255c-0.686-0.523-2.292-1.774,0,0c0.04,0.031,0.079,0.06,0.111,0.084
			c8.13,6.158,16.399,12.109,24.849,17.822c15.701,10.615,31.873,20.269,48.613,29.119c28.58,12.147,58.977,21.265,90.868,26.888
			c49.328,8.698,98.156,8.317,144.773,0.063c6.83-1.351,13.626-2.904,20.382-4.556c16.03-3.919,31.857-8.178,47.44-13.502
			c135.885-48.826,242.516-167.108,269.385-319.492c4.194-23.788,6.27-47.459,6.378-70.823
			C1415.645,800.475,1413.808,781.972,1410.776,764.267z"/>
		<path style="fill:#FEF89C;" d="M850.736,1207.6c1.413,0.686,2.828,1.365,4.252,2.028c2.19,1.019,4.39,2.019,6.597,3.003
			c0.882,0.394,1.766,0.785,2.651,1.173c0.13,0.057,2.305,1.011,2.614,1.153c1.788,0.765,3.582,1.516,5.361,2.301
			c0.252,0.111,0.467,0.206,0.652,0.288c0.105,0.043,0.24,0.099,0.421,0.175c2.241,0.938,4.49,1.857,6.746,2.76
			c0.593,0.237,1.192,0.462,1.788,0.692L988.466,955.47L850.736,1207.6z"/>
		<path style="fill:#FEF89C;" d="M762.71,1153.04c0.16,0.123,0.362,0.28,0.602,0.466c0.04,0.031,0.079,0.06,0.111,0.084
			c8.13,6.158,16.399,12.109,24.849,17.822c0.589,0.398,1.184,0.785,1.774,1.18l167.061-227.679L762.71,1153.04z"/>
		<path style="fill:#FEF89C;" d="M697.635,1096.688c3.667,3.704,7.386,7.345,11.152,10.932l220.571-180.732l-244.638,156.174
			C688.958,1087.665,693.228,1092.236,697.635,1096.688z"/>
		<path style="fill:#FEF89C;" d="M625.744,1003.568c4.492,7.848,9.225,15.542,14.165,23.098L906.964,902.53l-285.403,93.58
			C622.934,998.609,624.328,1001.095,625.744,1003.568z"/>
		<path style="fill:#FEF89C;" d="M590.548,893.102c1.249,6.574,2.615,13.193,4.133,19.889c1.13,4.984,2.358,9.926,3.666,14.84
			l292.985-54.463L590.548,893.102z"/>
		<path style="fill:#FEF89C;" d="M588.346,785.763c-0.066,0.956-0.14,1.911-0.198,2.868c-0.663,10.834-1.115,21.701-1.019,32.562
			l296.313,20.042L588.346,785.763z"/>
		<path style="fill:#FEF89C;" d="M609.413,679.934c-0.145,0.432-0.29,0.859-0.435,1.295c-3.644,10.922-6.346,22.062-9.145,33.176
			l283.958,93.743L609.413,679.934z"/>
		<path style="fill:#FEF89C;" d="M656.676,582.277c-0.552,0.865-1.107,1.727-1.657,2.594c-5.89,9.282-11.542,18.706-16.838,28.329
			l254.179,162.989L656.676,582.277z"/>
		<path style="fill:#FEF89C;" d="M727.568,499.588c-1.379,1.193-2.511,2.769-3.802,4.033c-1.901,1.86-3.916,3.615-5.844,5.448
			c-3.861,3.672-7.635,7.433-11.41,11.192c-1.586,1.579-3.158,3.176-4.722,4.779l206.815,222.323L727.568,499.588z"/>
		<path style="fill:#FEF89C;" d="M786.946,457.568L931.51,723.484L818.872,441.209c-0.217,0.081-0.436,0.16-0.653,0.241
			c-4.621,1.72-9.168,3.614-13.731,5.469C798.646,450.47,792.803,454.027,786.946,457.568z"/>
		<path style="fill:#FEF89C;" d="M920.697,404.352c-4.472,1.639-8.95,3.187-13.31,4.769c-6.875,2.493-13.747,4.991-20.621,7.484
			l72.868,289.446L920.697,404.352z"/>
		<path style="fill:#FEF89C;" d="M1005.917,396.937c-4.448-0.334-8.877-0.77-13.294-1.342l-1.414,300.565l36.754-297.35
			C1020.621,398.081,1013.261,397.488,1005.917,396.937z"/>
		<path style="fill:#FEF89C;" d="M1098.692,410.066l-74.44,284.365L1132,420.14C1121.022,416.399,1109.904,413.049,1098.692,410.066
			z"/>
		<path style="fill:#FEF89C;" d="M1197.033,448.505l-140.347,252.469l170.124-235.481
			C1217.101,459.471,1207.163,453.892,1197.033,448.505z"/>
		<path style="fill:#FEF89C;" d="M1302.303,524.376c-4.644-3.108-8.974-6.716-12.969-10.31c-2.165-1.947-4.327-3.893-6.492-5.835
			l-196.368,207.148l221.315-184.091C1305.98,528.969,1304.147,526.668,1302.303,524.376z"/>
		<path style="fill:#FEF89C;" d="M1347.785,588.496l-236.04,148.243l252.852-119.813
			C1359.247,607.31,1353.631,597.827,1347.785,588.496z"/>
		<path style="fill:#FEF89C;" d="M1390.533,682.005c-0.131-0.392-0.271-0.781-0.404-1.172l-259.22,82.879l268.975-52.058
			C1396.937,701.717,1393.821,691.803,1390.533,682.005z"/>
		<path style="fill:#FEF89C;" d="M1412.979,778.879l-270.215,15.724l273.062,16.444
			C1415.324,800.202,1414.364,789.436,1412.979,778.879z"/>
		<path style="fill:#FEF89C;" d="M1412.493,887.236c0.373-2.511,0.684-5.028,0.969-7.547l-266.898-52.216l261.462,84.179
			C1409.737,903.555,1411.279,895.422,1412.493,887.236z"/>
		<path style="fill:#FEF89C;" d="M1381.298,994.055c2.333-5.414,4.558-10.901,6.789-16.617L1142.07,860.254l232.297,146.547
			C1376.739,1002.586,1379.043,998.333,1381.298,994.055z"/>
		<path style="fill:#FEF89C;" d="M1337.065,1064.199l-207.501-173.311l186.899,197.96c6.946-7.883,13.695-15.928,20.219-24.128
			C1336.811,1064.548,1336.937,1064.372,1337.065,1064.199z"/>
		<path style="fill:#FEF89C;" d="M1268.277,1137.702L1109.833,917.45l133.583,241.451
			C1251.894,1152.084,1260.186,1145.012,1268.277,1137.702z"/>
		<path style="fill:#FEF89C;" d="M1183.586,1192.995l-99.469-254.725l69.188,266.498
			C1163.891,1200.869,1173.773,1197.171,1183.586,1192.995z"/>
		<path style="fill:#FEF89C;" d="M1063.915,1229.07c7.784-1.303,15.52-2.958,23.21-4.764l-33.094-272.265l0.748,278.494
			C1057.83,1230.085,1060.876,1229.579,1063.915,1229.07z"/>
		<path style="fill:#FEF89C;" d="M985.196,1234.516l36.269-276.618l-70.078,276.006
			C962.661,1234.427,973.928,1234.609,985.196,1234.516z"/>
		<g>
			<ellipse style="fill:#F79F29;" cx="1000" cy="817.685" rx="363.176" ry="366.785"/>
			<ellipse style="fill:#EF8128;" cx="1000" cy="817.685" rx="320.54" ry="323.725"/>
			<ellipse style="fill:#FEC426;" cx="999.995" cy="817.684" rx="282.011" ry="284.814"/>
			<ellipse style="fill:#ED8129;" cx="999.995" cy="817.684" rx="221.012" ry="223.209"/>
			<ellipse style="fill:#F9AE2A;" cx="999.997" cy="817.685" rx="189.557" ry="191.441"/>
			<linearGradient id="SVGID_1_" gradientUnits="userSpaceOnUse" x1="995.6474" y1="714.5376" x2="1005.7513" y2="954.1459">
				<stop  offset="0" style="stop-color:#FDFCBA"/>
				<stop  offset="0.5" style="stop-color:#FFD234"/>
				<stop  offset="1" style="stop-color:#E57D2A"/>
			</linearGradient>
			<ellipse style="fill:url(#SVGID_1_);" cx="999.997" cy="817.685" rx="145.854" ry="147.303"/>
		</g>
		
			<linearGradient id="SVGID_00000057839191160050944350000001836829131697698476_" gradientUnits="userSpaceOnUse" x1="1115.3083" y1="817.0635" x2="1115.3083" y2="1021.0388">
			<stop  offset="0" style="stop-color:#145246"/>
			<stop  offset="0.0078" style="stop-color:#1A5743"/>
			<stop  offset="0.0324" style="stop-color:#25613D"/>
			<stop  offset="0.0671" style="stop-color:#2C6639"/>
			<stop  offset="0.1634" style="stop-color:#2E6838"/>
			<stop  offset="1" style="stop-color:#0F184F"/>
		</linearGradient>
		<path style="fill:url(#SVGID_00000057839191160050944350000001836829131697698476_);" d="M1094.401,844.748
			c6.303-0.687,12.629-1.146,18.964-1.395c7.588-1.504,15.203-3.018,22.85-4.518
			C1122.069,837.727,1107.686,839.762,1094.401,844.748z"/>
		
			<linearGradient id="SVGID_00000017509779057313397310000014038909354558115223_" gradientUnits="userSpaceOnUse" x1="908.0585" y1="817.0635" x2="908.0585" y2="1021.0388">
			<stop  offset="0" style="stop-color:#145246"/>
			<stop  offset="0.0078" style="stop-color:#1A5743"/>
			<stop  offset="0.0324" style="stop-color:#25613D"/>
			<stop  offset="0.0671" style="stop-color:#2C6639"/>
			<stop  offset="0.1634" style="stop-color:#2E6838"/>
			<stop  offset="1" style="stop-color:#0F184F"/>
		</linearGradient>
		<path style="fill:url(#SVGID_00000017509779057313397310000014038909354558115223_);" d="M1113.365,843.353
			c-67.053,13.292-131.967,25.826-197.211,21.445c-70.222-4.715-138.696-28.952-209.055-27.212
			c-41.848,1.035-83.347,11.666-120.773,30.394c2.178,14.828,4.889,29.727,8.355,45.012c0.256,1.129,0.527,2.252,0.792,3.377
			c143.174-43.691,301.582-42.88,442.186,6.033c65.185-20.171,126.947-38.519,192.132-58.69
			C1193.025,848.736,1153.029,841.788,1113.365,843.353z"/>
		<path style="fill:#E5CF42;" d="M1272.162,1063.501c25.379-1.522,50.907-6.092,75.321-13.798
			c12.352-17.788,23.644-36.36,33.762-55.526c3.783-8.769,7.266-17.698,10.984-27.534c4.654-12.316,8.962-25.065,11.965-37.888
			c3.218-13.741,6.229-27.554,8.298-41.519c0.931-6.277,1.553-12.58,2.03-18.896c-45.636-11.225-94.084-12.077-140.957-6.366
			c-66.234,8.071-130.235,28.542-193.823,48.758c-63.587,20.216-127.715,40.387-194.023,47.826
			c46.778,22.252,104.226,45.452,162.796,65.344C1120.666,1048.406,1196.103,1068.061,1272.162,1063.501z"/>
		<path style="fill:#48994D;" d="M1281.205,1056.583c19.587-1.177,43.028-2.871,66.09-6.608
			c12.426-17.872,23.782-36.537,33.952-55.801c3.782-8.768,7.265-17.696,10.982-27.531c4.654-12.316,8.962-25.065,11.965-37.888
			c3.108-13.274,6.015-26.616,8.076-40.097c-73.491-11.65-150.621,1.659-223.289,21.068
			c-88.084,23.526-174.723,55.896-265.588,63.361c84.943,19.449,161.712,67.797,246.987,80.549
			C1212.198,1059.89,1238.999,1059.12,1281.205,1056.583z"/>
		<path style="fill:#165758;" d="M1308.98,1057.596c13.055-1.886,26.056-4.656,38.796-8.316
			c12.235-17.657,23.428-36.083,33.465-55.094c3.785-8.772,7.269-17.704,10.988-27.544c4.654-12.316,8.962-25.065,11.965-37.888
			c0.122-0.519,0.24-1.038,0.361-1.557c-70.292-3.744-140.115,18.674-208.05,39.008c-74.158,22.197-152.98,42.285-228.112,23.648
			c51.745,26.546,112.73,45.406,174.972,58.129C1197.817,1059.114,1253.974,1065.545,1308.98,1057.596z"/>
		<path style="fill:#0F7061;" d="M1021.102,1008.666c-2.608-0.991-5.205-1.971-7.839-2.988
			C1015.861,1006.731,1018.478,1007.714,1021.102,1008.666z"/>
		<path style="fill:#0F7061;" d="M1345.17,1053.024c13.33-18.89,25.433-38.701,36.218-59.178c2.17-5.043,4.247-10.149,6.324-15.447
			c-57.567,8.108-113.901,24.655-171.132,35.581c-64.815,12.374-133.693,17.108-195.478-5.314
			c64.363,24.452,121.063,40.959,179.332,48.603C1248.51,1063.577,1298.045,1063.63,1345.17,1053.024z"/>
		<path style="fill:#ECD64F;" d="M605.102,916.204c68.298-32.193,145.531-42.363,220.918-38.143s149.353,22.313,221.535,44.465
			c-54.643,14.748-110.128,26.377-166.719,33.674C797.343,921.059,704.783,907.723,605.102,916.204z"/>
		<path style="fill:#4D9F46;" d="M603.513,921.631c65.666-36.663,145.72-35.531,220.134-24.64
			c74.415,10.891,148.346,30.573,223.494,27.586c-53.591,11.68-107.183,23.36-160.774,35.04
			C795.116,929.794,697.138,899.749,603.513,921.631z"/>
		<path style="fill:#37894C;" d="M610.686,917.828c43.852-21.355,95.254-20.633,143.433-13.03s95.391,21.604,144.019,25.393
			c45.022,3.508,90.213-1.819,135.057-7.137c-46.366,12.052-92.731,24.104-139.26,31.749
			c-52.156-15.042-104.973-27.791-158.247-38.199C693.468,908.355,648.572,901.785,610.686,917.828z"/>
		<path style="fill:#DFCA3E;" d="M1055.774,1024.848c-104.667-32.903-205.446-85.811-313.192-106.51
			c-48.019-9.225-98.343-8.39-145.766,3.561c3.165,12.652,6.898,25.082,11.255,37.426c4.145,11.743,8.049,23.679,12.673,35.268
			c1.639,3.007,3.298,6.004,5,8.976c9.873,17.249,20.85,33.785,32.833,49.638c0.271,0.358,2.912,3.792,2.457,3.215
			c0.444,0.579,0.885,1.162,1.346,1.725c1.526,1.862,3.151,3.657,4.733,5.473c3.173,3.643,6.409,7.229,9.673,10.791
			c6.876,7.503,13.687,15.041,20.85,22.277c14.193,14.339,29.14,27.761,44.742,40.55c2.064,1.692,4.141,3.368,6.231,5.028
			c1.136,0.902,2.277,1.796,3.418,2.691c1.861,1.418,3.723,2.833,5.599,4.23c2.023,1.507,4.018,3.026,6.016,4.574
			c-0.123-0.095-0.224-0.173-0.329-0.255c-0.686-0.523-2.292-1.774,0,0c0.04,0.031,0.079,0.06,0.111,0.084
			c8.13,6.158,16.399,12.109,24.849,17.822c16.895,11.422,34.326,21.744,52.434,31.134c4.717,2.446,9.465,4.84,14.283,7.082
			c2.19,1.019,4.39,2.019,6.597,3.003c0.882,0.394,1.766,0.785,2.651,1.173c0.13,0.057,2.305,1.011,2.614,1.153
			c1.788,0.765,3.582,1.516,5.361,2.301c0.252,0.111,0.467,0.206,0.652,0.288c0.105,0.043,0.24,0.099,0.421,0.175
			c2.241,0.938,4.49,1.857,6.746,2.76c4.501,1.801,9.092,3.385,13.683,4.94c5.015,1.699,10.095,3.242,15.159,4.828
			c4.517,0.57,9.04,1.092,13.57,1.546c38.583,3.865,76.975,3.332,115.579,0.413c2.599-0.197,5.197-0.412,7.792-0.651
			c1.153-0.106,2.305-0.223,3.458-0.329c0.664-0.061,1.124-0.103,1.438-0.132c4.415-0.557,8.819-1.293,13.206-2.028
			c9.738-1.63,19.404-3.8,28.994-6.144c18.698-4.571,37.122-9.594,55.201-16.245c18.631-6.854,34.854-12.766,51.95-21.243
			c8.613-4.271,16.966-9.021,25.382-13.659c0.582-0.32,1.147-0.659,1.725-0.984c4.85-3.388,9.65-6.846,14.388-10.387
			c35.157-28.025,67.132-60.503,95.127-95.687c3.438-4.602,6.794-9.269,10.085-13.985
			C1251.689,1072.714,1149.746,1054.389,1055.774,1024.848z"/>
		<path style="fill:#60A440;" d="M1086.891,1098.21c-105.319-40.559-206.482-93.3-315.915-120.897
			c-52.563-13.255-108.246-19.998-162.449-16.683c3.975,11.322,7.764,22.803,12.217,33.963c1.639,3.007,3.298,6.004,5,8.976
			c9.873,17.249,20.85,33.785,32.833,49.638c0.271,0.358,2.912,3.792,2.457,3.215c0.444,0.579,0.885,1.162,1.346,1.725
			c1.526,1.862,3.151,3.657,4.733,5.473c3.173,3.643,6.409,7.229,9.673,10.791c6.876,7.503,13.687,15.041,20.85,22.277
			c14.193,14.339,29.14,27.761,44.742,40.55c2.064,1.692,4.141,3.368,6.231,5.028c1.136,0.902,2.277,1.796,3.418,2.691
			c1.861,1.418,3.723,2.833,5.599,4.23c2.023,1.507,4.018,3.026,6.016,4.574c-0.123-0.095-0.224-0.173-0.329-0.255
			c-0.686-0.523-2.292-1.774,0,0c0.04,0.031,0.079,0.06,0.111,0.084c8.13,6.158,16.399,12.109,24.849,17.822
			c16.895,11.422,34.326,21.744,52.434,31.134c4.717,2.446,9.465,4.84,14.283,7.082c2.19,1.019,4.39,2.019,6.597,3.003
			c0.882,0.394,1.766,0.785,2.651,1.173c0.13,0.057,2.305,1.011,2.614,1.153c1.788,0.765,3.582,1.516,5.361,2.301
			c0.252,0.111,0.467,0.206,0.652,0.288c0.105,0.043,0.24,0.099,0.421,0.175c2.241,0.938,4.49,1.857,6.746,2.76
			c4.501,1.801,9.092,3.385,13.683,4.94c5.015,1.699,10.095,3.242,15.159,4.828c4.517,0.57,9.04,1.092,13.57,1.546
			c38.583,3.865,76.975,3.332,115.579,0.413c2.599-0.197,5.197-0.412,7.792-0.651c1.153-0.106,2.305-0.223,3.458-0.329
			c0.664-0.061,1.124-0.103,1.438-0.132c4.415-0.557,8.819-1.293,13.206-2.028c9.738-1.63,19.404-3.8,28.994-6.144
			c18.698-4.571,37.122-9.594,55.201-16.245c18.631-6.854,34.854-12.766,51.95-21.243c8.613-4.271,16.966-9.021,25.382-13.659
			c0.582-0.32,1.147-0.659,1.725-0.984c4.85-3.388,9.65-6.846,14.388-10.387c5.713-4.554,11.333-9.238,16.875-14.02
			C1199.968,1137.467,1142.108,1119.475,1086.891,1098.21z"/>
		<path style="fill:#0E4B63;" d="M897.312,1080.737c-81.297-34.788-169.324-52.87-257.702-54.529
			c6.006,9.21,12.326,18.213,18.966,26.998c0.271,0.358,2.912,3.792,2.457,3.215c0.444,0.579,0.885,1.162,1.346,1.725
			c1.526,1.862,3.151,3.657,4.733,5.473c3.173,3.643,6.409,7.229,9.673,10.791c6.876,7.503,13.687,15.041,20.85,22.277
			c14.193,14.339,29.14,27.761,44.742,40.55c2.064,1.692,4.141,3.368,6.231,5.028c1.136,0.902,2.277,1.796,3.418,2.691
			c1.861,1.418,3.723,2.833,5.599,4.23c2.023,1.507,4.018,3.026,6.016,4.574c-0.123-0.095-0.224-0.173-0.329-0.255
			c-0.686-0.523-2.292-1.774,0,0c0.04,0.031,0.079,0.06,0.111,0.084c8.13,6.158,16.399,12.109,24.849,17.822
			c16.895,11.422,34.326,21.744,52.434,31.134c4.717,2.446,9.465,4.84,14.283,7.082c2.19,1.019,4.39,2.019,6.597,3.003
			c0.882,0.394,1.766,0.785,2.651,1.173c0.13,0.057,2.305,1.011,2.614,1.153c1.788,0.765,3.582,1.516,5.361,2.301
			c0.252,0.111,0.467,0.206,0.652,0.288c0.105,0.043,0.24,0.099,0.421,0.175c2.241,0.938,4.49,1.857,6.746,2.76
			c4.501,1.801,9.092,3.385,13.683,4.94c5.015,1.699,10.095,3.242,15.159,4.828c4.517,0.57,9.04,1.092,13.57,1.546
			c38.583,3.865,76.975,3.332,115.579,0.413c2.599-0.197,5.197-0.412,7.792-0.651c1.153-0.106,2.305-0.223,3.458-0.329
			c0.664-0.061,1.124-0.103,1.438-0.132c4.415-0.557,8.819-1.293,13.206-2.028c9.738-1.63,19.404-3.8,28.994-6.144
			c17.582-4.298,34.918-9.014,51.958-15.09C1060.988,1170.717,982.228,1117.075,897.312,1080.737z"/>
		<path style="fill:#104057;" d="M737.626,1106.832c-13.45-4.218-27.07-7.877-40.813-10.991c0.276,0.281,0.545,0.568,0.822,0.847
			c14.193,14.339,29.14,27.761,44.742,40.55c2.064,1.692,4.141,3.368,6.231,5.028c1.136,0.902,2.277,1.796,3.418,2.691
			c1.861,1.418,3.723,2.833,5.599,4.23c2.023,1.507,4.018,3.026,6.016,4.574c-0.123-0.095-0.224-0.173-0.329-0.255
			c-0.686-0.523-2.292-1.774,0,0c0.04,0.031,0.079,0.06,0.111,0.084c8.13,6.158,16.399,12.109,24.849,17.822
			c16.895,11.422,34.326,21.744,52.434,31.134c4.717,2.446,9.465,4.84,14.283,7.082c2.19,1.019,4.39,2.019,6.597,3.003
			c0.882,0.394,1.766,0.785,2.651,1.173c0.13,0.057,2.305,1.011,2.614,1.153c1.788,0.765,3.582,1.516,5.361,2.301
			c0.252,0.111,0.467,0.206,0.652,0.288c0.105,0.043,0.24,0.099,0.421,0.175c2.241,0.938,4.49,1.857,6.746,2.76
			c4.501,1.801,9.092,3.385,13.683,4.94c5.015,1.699,10.095,3.242,15.159,4.828c4.517,0.57,9.04,1.092,13.57,1.546
			c29.417,2.947,58.722,3.331,88.095,2.057C918.708,1193.195,833.472,1136.888,737.626,1106.832z"/>
		<path style="fill:#0E3F59;" d="M1271.233,1057.99c-44.9,1.828-93.321-3.963-143.914-17.207
			c-55.49-14.527-109.838-36.195-162.397-57.15c-36.164-14.418-73.56-29.328-111.135-41.847
			c-100.183-33.379-185.119-41.989-258.474-26.1c0.667,2.852,1.355,5.694,2.08,8.522c71.736-15.479,155.078-6.942,253.624,25.892
			c37.335,12.44,74.611,27.301,110.66,41.674c52.806,21.053,107.409,42.823,163.423,57.487
			c45.246,11.845,88.823,17.823,129.813,17.822c5.605,0,11.169-0.112,16.675-0.336c24.917-1.013,48.588-4.341,70.88-9.941
			c2.657-3.697,5.273-7.426,7.837-11.193C1325.729,1052.699,1299.306,1056.849,1271.233,1057.99z"/>
		<path style="fill:#0E3F59;" d="M594.31,911.314c0.125,0.56,0.244,1.116,0.371,1.677c0.524,2.312,1.073,4.612,1.635,6.908
			c67.633-24.379,139.633-36.679,211.674-36.679c77.815,0,155.679,14.34,228.043,43.25l3.251-8.137
			C898.273,861.997,736.775,860.246,594.31,911.314z"/>
		<path style="fill:#0E3F59;" d="M892.386,958.144c-6.888,0-13.581-0.289-20.11-0.865l0.769-8.728
			c54.607,4.813,115.17-12.703,161.83-28.501c10.333-3.499,20.834-7.115,30.989-10.612c48.987-16.871,99.642-34.315,151.22-45.4
			c33.444-7.188,65.51-11.173,95.306-11.845c33.824-0.767,65.865,2.71,95.222,10.324l-2.2,8.482
			c-28.575-7.411-59.812-10.792-92.824-10.046c-29.245,0.66-60.758,4.58-93.662,11.651
			c-51.064,10.975-101.466,28.333-150.208,45.118c-10.166,3.501-20.677,7.121-31.032,10.627
			c-31.684,10.728-57.536,17.963-81.358,22.769C933.035,955.818,911.932,958.144,892.386,958.144z"/>
		<path style="fill:#0E3F59;" d="M1229.604,861.107c-19.218-12.635-42.547-20.369-69.344-22.986
			c-22.123-2.161-46.357-0.98-74.088,3.609c-15.259,2.525-30.645,5.799-45.524,8.965c-31.427,6.687-63.916,13.6-96.268,13.6
			c-0.165,0-0.333,0-0.497,0c-34.745-0.076-69.502-8.166-103.114-15.989c-25.737-5.99-52.351-12.185-79.112-14.877
			c-37.574-3.78-75.51-0.628-112.755,9.37c-21.963,5.895-42.931,13.99-62.729,24.157c0.442,3.045,0.913,6.095,1.402,9.148
			c20.007-10.524,41.273-18.849,63.599-24.842c36.216-9.721,73.092-12.787,109.606-9.114c26.201,2.636,52.535,8.765,78.003,14.693
			c34.09,7.935,69.34,16.139,105.081,16.217c0.174,0,0.345,0,0.519,0c33.27,0,66.221-7.01,98.09-13.791
			c14.783-3.146,30.069-6.398,45.131-8.89c26.966-4.462,50.455-5.619,71.806-3.533c25.46,2.487,47.523,9.793,65.579,21.716
			l0.209,0.139l1.662,0.843l3.963-7.815L1229.604,861.107z"/>
		<path style="fill:#28330F;" d="M1000.567,1241.504c-24.679,0-49.436-2.177-74.146-6.533
			c-56.33-9.932-109.033-30.603-156.646-61.436c-45.985-29.78-85.305-67.735-116.868-112.812
			c-31.564-45.077-53.782-95.008-66.037-148.404c-12.69-55.287-14.087-111.882-4.155-168.211l7.551,1.332l-7.551-1.332
			c9.932-56.33,30.603-109.033,61.436-156.646c29.779-45.985,67.735-85.305,112.812-116.868
			c45.077-31.563,95.008-53.782,148.405-66.037c55.287-12.689,111.882-14.087,168.211-4.155
			c56.329,9.933,109.033,30.603,156.646,61.436c45.985,29.779,85.305,67.735,116.868,112.812
			c31.563,45.077,53.782,95.008,66.037,148.404c12.689,55.287,14.087,111.881,4.155,168.211
			c-9.932,56.33-30.603,109.033-61.436,156.646c-29.779,45.985-67.735,85.305-112.812,116.868
			c-45.077,31.563-95.007,53.782-148.404,66.037C1063.598,1237.938,1032.148,1241.503,1000.567,1241.504z M999.437,409.203
			c-30.437,0-60.733,3.434-90.639,10.298c-51.463,11.812-99.588,33.227-143.039,63.652
			c-43.451,30.425-80.036,68.323-108.736,112.643c-29.712,45.881-49.631,96.676-59.206,150.973
			c-9.574,54.298-8.229,108.842,3.999,162.118c11.811,51.463,33.227,99.588,63.652,143.039
			c30.425,43.451,68.323,80.036,112.643,108.736c45.881,29.712,96.676,49.631,150.973,59.206c23.818,4.2,47.693,6.299,71.479,6.299
			c30.437,0.001,60.733-3.434,90.639-10.298c51.463-11.812,99.588-33.227,143.039-63.652
			c43.451-30.425,80.036-68.324,108.736-112.643c29.712-45.881,49.631-96.675,59.206-150.973
			c9.574-54.298,8.229-108.842-3.999-162.118c-11.812-51.463-33.227-99.588-63.652-143.039
			c-30.425-43.451-68.324-80.036-112.643-108.736c-45.881-29.712-96.675-49.631-150.973-59.205
			C1047.097,411.302,1023.222,409.203,999.437,409.203z"/>
	</g>
</g>
</svg>
